<svg width="235" height="74" viewBox="0 0 235 74" fill="none" xmlns="http://www.w3.org/2000/svg">
<path d="M87.6062 12.2771C86.9843 12.2771 86.4434 12.0473 85.9837 11.5875C85.524 11.1278 85.2941 10.587 85.2941 9.965V8.86979C85.2941 8.24782 85.524 7.70698 85.9837 7.24726C86.4434 6.78754 86.9843 6.55768 87.6062 6.55768H105.698C106.319 6.55768 106.86 6.78754 107.32 7.24726C107.78 7.70698 108.01 8.24782 108.01 8.86979V9.965C108.01 10.587 107.78 11.1278 107.32 11.5875C106.86 12.0473 106.319 12.2771 105.698 12.2771H100.505C100.289 12.2771 100.181 12.3853 100.181 12.6016V33.8568C100.181 34.4788 99.951 35.0196 99.4913 35.4794C99.0316 35.9391 98.4908 36.1689 97.8688 36.1689H95.435C94.813 36.1689 94.2722 35.9391 93.8124 35.4794C93.3527 35.0196 93.1229 34.4788 93.1229 33.8568V12.6016C93.1229 12.3853 93.0147 12.2771 92.7984 12.2771H87.6062ZM124.306 12.5611L121.345 24.2027C121.318 24.2839 121.332 24.365 121.386 24.4461C121.467 24.5002 121.548 24.5273 121.629 24.5273H127.065C127.146 24.5273 127.213 24.5002 127.267 24.4461C127.349 24.365 127.376 24.2839 127.349 24.2027L124.387 12.5611C124.387 12.534 124.374 12.5205 124.347 12.5205C124.32 12.5205 124.306 12.534 124.306 12.5611ZM113.476 36.1689C112.908 36.1689 112.448 35.9391 112.097 35.4794C111.772 35.0196 111.705 34.5194 111.894 33.9785L120.088 8.7481C120.304 8.09909 120.683 7.57177 121.223 7.16613C121.791 6.7605 122.413 6.55768 123.089 6.55768H125.767C126.47 6.55768 127.105 6.7605 127.673 7.16613C128.241 7.57177 128.62 8.09909 128.809 8.7481L136.962 33.9785C137.151 34.5194 137.07 35.0196 136.719 35.4794C136.394 35.9391 135.948 36.1689 135.38 36.1689H132.662C131.986 36.1689 131.378 35.9661 130.837 35.5605C130.296 35.1278 129.945 34.587 129.782 33.938L128.809 30.0844C128.782 29.8681 128.647 29.7599 128.403 29.7599H120.291C120.074 29.7599 119.939 29.8681 119.885 30.0844L118.911 33.938C118.749 34.587 118.398 35.1278 117.857 35.5605C117.316 35.9661 116.707 36.1689 116.031 36.1689H113.476ZM153.615 24.3244C150.207 23.2427 147.746 21.9042 146.232 20.3087C144.718 18.6861 143.96 16.712 143.96 14.3864C143.96 11.8444 144.839 9.84331 146.597 8.38303C148.382 6.89571 150.924 6.15205 154.223 6.15205C156.711 6.15205 158.969 6.43599 160.997 7.00388C161.646 7.19317 162.16 7.58529 162.539 8.18022C162.944 8.7481 163.147 9.3836 163.147 10.0867V11.263C163.147 11.8039 162.917 12.223 162.457 12.5205C161.998 12.818 161.511 12.872 160.997 12.6827C158.699 11.8715 156.576 11.4658 154.629 11.4658C152.141 11.4658 150.897 12.4394 150.897 14.3864C150.897 16.036 151.979 17.2123 154.142 17.9154C157.874 19.0512 160.456 20.3763 161.89 21.8906C163.35 23.405 164.08 25.3926 164.08 27.8535C164.08 33.6675 160.416 36.5746 153.087 36.5746C150.762 36.5746 148.652 36.2095 146.759 35.4794C146.11 35.236 145.597 34.8168 145.218 34.2219C144.866 33.5999 144.691 32.9239 144.691 32.1937V30.8957C144.691 30.4089 144.907 30.0439 145.34 29.8005C145.772 29.5301 146.205 29.503 146.638 29.7194C148.612 30.6929 150.626 31.1797 152.682 31.1797C154.115 31.1797 155.197 30.9092 155.927 30.3684C156.684 29.8005 157.062 29.0027 157.062 27.9751C157.062 27.0827 156.806 26.3526 156.292 25.7847C155.778 25.2168 154.886 24.7301 153.615 24.3244ZM176.6 36.1689C175.978 36.1689 175.437 35.9391 174.978 35.4794C174.518 35.0196 174.288 34.4788 174.288 33.8568V8.86979C174.288 8.24782 174.518 7.70698 174.978 7.24726C175.437 6.78754 175.978 6.55768 176.6 6.55768H178.912C179.534 6.55768 180.061 6.78754 180.494 7.24726C180.954 7.70698 181.184 8.24782 181.184 8.86979V19.2135C181.184 19.2405 181.197 19.254 181.224 19.254C181.278 19.254 181.305 19.2405 181.305 19.2135L188.201 8.50472C189.012 7.2067 190.189 6.55768 191.73 6.55768H195.138C195.624 6.55768 195.976 6.77402 196.192 7.20669C196.409 7.63937 196.381 8.05853 196.111 8.46416L187.877 20.4709C187.741 20.6602 187.741 20.8495 187.877 21.0388L196.557 34.2625C196.828 34.6681 196.841 35.0873 196.598 35.5199C196.381 35.9526 196.03 36.1689 195.543 36.1689H192.136C190.594 36.1689 189.432 35.5199 188.647 34.2219L181.305 22.2963C181.305 22.2692 181.278 22.2557 181.224 22.2557C181.197 22.2557 181.184 22.2692 181.184 22.2963V33.8568C181.184 34.4788 180.954 35.0196 180.494 35.4794C180.061 35.9391 179.534 36.1689 178.912 36.1689H176.6Z" fill="black"/>
<path d="M102.966 47.4433C104.697 47.4433 106.103 47.9932 107.185 49.0929C108.285 50.1746 108.834 51.752 108.834 53.8253V62.4788H106.968V54.0416C106.968 52.4371 106.581 51.2112 105.806 50.3639C105.03 49.5165 103.976 49.0929 102.642 49.0929C101.254 49.0929 100.145 49.5526 99.3155 50.472C98.4862 51.3915 98.0716 52.7256 98.0716 54.4743V62.4788H96.2057V54.0416C96.2057 52.4371 95.8181 51.2112 95.0429 50.3639C94.2677 49.5165 93.204 49.0929 91.8519 49.0929C90.4637 49.0929 89.355 49.5526 88.5257 50.472C87.6964 51.3915 87.2817 52.7256 87.2817 54.4743V62.4788H85.3888V47.7137H87.2817V50.2557C87.7505 49.3363 88.4175 48.6422 89.2829 48.1734C90.1482 47.6867 91.1127 47.4433 92.1764 47.4433C93.4564 47.4433 94.5741 47.7498 95.5296 48.3627C96.5031 48.9757 97.2062 49.8771 97.6389 51.067C98.0355 49.8951 98.7116 49.0027 99.6671 48.3898C100.641 47.7588 101.74 47.4433 102.966 47.4433ZM116.229 55.0692C116.229 53.5548 116.527 52.2298 117.122 51.094C117.735 49.9402 118.573 49.0568 119.637 48.4439C120.718 47.8129 121.935 47.4974 123.287 47.4974C124.694 47.4974 125.902 47.8219 126.911 48.4709C127.939 49.1199 128.678 49.9492 129.129 50.9588V47.7137H131.022V62.4788H129.129V59.2067C128.66 60.2163 127.912 61.0546 126.884 61.7216C125.874 62.3706 124.667 62.6951 123.26 62.6951C121.926 62.6951 120.718 62.3796 119.637 61.7486C118.573 61.1177 117.735 60.2253 117.122 59.0715C116.527 57.9177 116.229 56.5836 116.229 55.0692ZM129.129 55.0963C129.129 53.9064 128.885 52.8608 128.398 51.9594C127.912 51.0579 127.245 50.3639 126.397 49.8771C125.568 49.3903 124.649 49.147 123.639 49.147C122.593 49.147 121.656 49.3813 120.827 49.8501C119.997 50.3188 119.339 51.0039 118.853 51.9053C118.384 52.7887 118.149 53.8433 118.149 55.0692C118.149 56.2771 118.384 57.3408 118.853 58.2602C119.339 59.1616 119.997 59.8557 120.827 60.3425C121.656 60.8112 122.593 61.0456 123.639 61.0456C124.649 61.0456 125.568 60.8022 126.397 60.3154C127.245 59.8286 127.912 59.1346 128.398 58.2332C128.885 57.3317 129.129 56.2861 129.129 55.0963ZM146.322 47.4433C148.089 47.4433 149.531 47.9932 150.649 49.0929C151.767 50.1746 152.326 51.752 152.326 53.8253V62.4788H150.46V54.0416C150.46 52.4371 150.054 51.2112 149.243 50.3639C148.449 49.5165 147.359 49.0929 145.971 49.0929C144.546 49.0929 143.411 49.5436 142.563 50.445C141.716 51.3464 141.292 52.6715 141.292 54.4202V62.4788H139.399V47.7137H141.292V50.2287C141.761 49.3272 142.437 48.6422 143.32 48.1734C144.204 47.6867 145.204 47.4433 146.322 47.4433ZM159.703 55.0692C159.703 53.5548 160 52.2298 160.595 51.094C161.208 49.9402 162.047 49.0568 163.11 48.4439C164.192 47.8129 165.409 47.4974 166.761 47.4974C168.167 47.4974 169.375 47.8219 170.385 48.4709C171.412 49.1199 172.151 49.9492 172.602 50.9588V47.7137H174.495V62.4788H172.602V59.2067C172.133 60.2163 171.385 61.0546 170.358 61.7216C169.348 62.3706 168.14 62.6951 166.734 62.6951C165.4 62.6951 164.192 62.3796 163.11 61.7486C162.047 61.1177 161.208 60.2253 160.595 59.0715C160 57.9177 159.703 56.5836 159.703 55.0692ZM172.602 55.0963C172.602 53.9064 172.359 52.8608 171.872 51.9594C171.385 51.0579 170.718 50.3639 169.871 49.8771C169.042 49.3903 168.122 49.147 167.113 49.147C166.067 49.147 165.129 49.3813 164.3 49.8501C163.471 50.3188 162.813 51.0039 162.326 51.9053C161.857 52.7887 161.623 53.8433 161.623 55.0692C161.623 56.2771 161.857 57.3408 162.326 58.2602C162.813 59.1616 163.471 59.8557 164.3 60.3425C165.129 60.8112 166.067 61.0456 167.113 61.0456C168.122 61.0456 169.042 60.8022 169.871 60.3154C170.718 59.8286 171.385 59.1346 171.872 58.2332C172.359 57.3317 172.602 56.2861 172.602 55.0963ZM189.066 47.4974C190.454 47.4974 191.662 47.8219 192.689 48.4709C193.717 49.1199 194.456 49.9402 194.907 50.9318V47.7137H196.8V62.8574C196.8 64.2095 196.502 65.4084 195.907 66.454C195.33 67.4996 194.519 68.3019 193.473 68.8608C192.428 69.4377 191.238 69.7261 189.904 69.7261C188.011 69.7261 186.433 69.2754 185.172 68.374C183.928 67.4726 183.152 66.2467 182.846 64.6963H184.712C185.036 65.7239 185.649 66.5441 186.551 67.1571C187.47 67.7701 188.588 68.0765 189.904 68.0765C190.859 68.0765 191.716 67.8692 192.473 67.4546C193.23 67.0579 193.825 66.463 194.258 65.6698C194.69 64.8765 194.907 63.9391 194.907 62.8574V59.2067C194.438 60.2163 193.69 61.0546 192.662 61.7216C191.653 62.3706 190.454 62.6951 189.066 62.6951C187.713 62.6951 186.497 62.3796 185.415 61.7486C184.351 61.1177 183.513 60.2253 182.9 59.0715C182.305 57.9177 182.008 56.5836 182.008 55.0692C182.008 53.5548 182.305 52.2298 182.9 51.094C183.513 49.9402 184.351 49.0568 185.415 48.4439C186.497 47.8129 187.713 47.4974 189.066 47.4974ZM194.907 55.0963C194.907 53.9064 194.663 52.8608 194.177 51.9594C193.69 51.0579 193.023 50.3639 192.175 49.8771C191.346 49.3903 190.427 49.147 189.417 49.147C188.372 49.147 187.434 49.3813 186.605 49.8501C185.775 50.3188 185.117 51.0039 184.631 51.9053C184.162 52.7887 183.928 53.8433 183.928 55.0692C183.928 56.2771 184.162 57.3408 184.631 58.2602C185.117 59.1616 185.775 59.8557 186.605 60.3425C187.434 60.8112 188.372 61.0456 189.417 61.0456C190.427 61.0456 191.346 60.8022 192.175 60.3154C193.023 59.8286 193.69 59.1346 194.177 58.2332C194.663 57.3317 194.907 56.2861 194.907 55.0963ZM218.536 54.3391C218.536 54.9881 218.518 55.4839 218.482 55.8264H206.232C206.286 56.9441 206.557 57.8996 207.043 58.6929C207.53 59.4861 208.17 60.0901 208.963 60.5047C209.757 60.9013 210.622 61.0996 211.559 61.0996C212.785 61.0996 213.813 60.8022 214.642 60.2072C215.49 59.6123 216.048 58.8101 216.319 57.8005H218.32C217.959 59.2427 217.184 60.4236 215.994 61.343C214.823 62.2444 213.344 62.6951 211.559 62.6951C210.171 62.6951 208.927 62.3886 207.828 61.7757C206.728 61.1447 205.863 60.2613 205.232 59.1256C204.619 57.9717 204.312 56.6287 204.312 55.0963C204.312 53.5639 204.619 52.2208 205.232 51.067C205.845 49.9132 206.701 49.0298 207.801 48.4168C208.9 47.8039 210.153 47.4974 211.559 47.4974C212.966 47.4974 214.192 47.8039 215.237 48.4168C216.301 49.0298 217.112 49.8591 217.671 50.9047C218.248 51.9323 218.536 53.0771 218.536 54.3391ZM216.616 54.285C216.634 53.1853 216.409 52.2478 215.94 51.4726C215.49 50.6974 214.868 50.1115 214.074 49.7148C213.281 49.3182 212.416 49.1199 211.478 49.1199C210.072 49.1199 208.873 49.5706 207.882 50.472C206.89 51.3734 206.34 52.6444 206.232 54.285H216.616ZM227.949 50.3368C228.364 49.4174 228.995 48.7053 229.842 48.2005C230.707 47.6957 231.762 47.4433 233.006 47.4433V49.4174H232.492C231.122 49.4174 230.022 49.787 229.193 50.5261C228.364 51.2653 227.949 52.5002 227.949 54.2309V62.4788H226.056V47.7137H227.949V50.3368Z" fill="black"/>
<path d="M69.7043 37.0985C69.7043 44.1069 67.451 50.9295 63.277 56.5594C59.1031 62.1892 53.2296 66.3279 46.5237 68.3645C39.8178 70.4011 32.6347 70.2277 26.0349 67.8698C19.4351 65.512 13.7682 61.0947 9.87084 55.27C5.97344 49.4452 4.05204 42.5218 4.39026 35.5216C4.72848 28.5214 7.30841 21.8154 11.7492 16.3936C16.19 10.9718 22.2563 7.12135 29.0527 5.41077C35.8491 3.70018 43.0154 4.22006 49.4937 6.89366" stroke="#A488F0" stroke-width="7.88732" stroke-linecap="round"/>
<path d="M29.5406 51.3598C27.5078 49.3323 27.5078 46.0559 29.5259 44.0283L49.5596 23.9732C51.5924 21.9456 54.8774 21.9456 56.9102 23.9585C58.943 25.986 58.9431 29.2624 56.925 31.29L36.8912 51.3451C34.8584 53.3727 31.5735 53.3874 29.5406 51.3598Z" fill="url(#paint0_linear)"/>
<path d="M32.4367 39.6918L23.3287 30.7091C21.262 28.6628 17.9554 28.7229 15.9626 30.8294C13.955 32.936 14.014 36.3064 16.0807 38.3376L29.2777 51.3529C30.1191 52.1804 31.1672 52.6619 32.2448 52.7973C33.721 53.0531 35.5809 52.7371 37.4409 50.6758L44.5413 43.3933L50.5494 37.2543C50.5494 37.2693 37.4705 44.6572 32.4367 39.6918Z" fill="#4200FF"/>
<defs>
<linearGradient id="paint0_linear" x1="54.3897" y1="25.9856" x2="19.0424" y2="61.6278" gradientUnits="userSpaceOnUse">
<stop stop-color="#0000FF"/>
<stop offset="0.649234" stop-color="#1B044A"/>
</linearGradient>
</defs>
</svg>
