<svg width="74" height="74" viewBox="0 0 74 74" fill="none" xmlns="http://www.w3.org/2000/svg">
<path d="M69.7043 37.0985C69.7043 44.1069 67.451 50.9295 63.277 56.5594C59.1031 62.1892 53.2296 66.3279 46.5237 68.3645C39.8178 70.4011 32.6347 70.2277 26.0349 67.8698C19.4351 65.512 13.7682 61.0947 9.87084 55.27C5.97344 49.4452 4.05204 42.5218 4.39026 35.5216C4.72848 28.5214 7.30841 21.8154 11.7492 16.3936C16.19 10.9718 22.2563 7.12135 29.0527 5.41077C35.8491 3.70018 43.0154 4.22006 49.4937 6.89366" stroke="#A488F0" stroke-width="7.88732" stroke-linecap="round"/>
<path d="M29.5406 51.3598C27.5078 49.3323 27.5078 46.0559 29.5259 44.0283L49.5596 23.9732C51.5924 21.9456 54.8774 21.9456 56.9102 23.9585C58.943 25.986 58.9431 29.2624 56.925 31.29L36.8912 51.3451C34.8584 53.3727 31.5735 53.3874 29.5406 51.3598Z" fill="url(#paint0_linear)"/>
<path d="M32.4367 39.6918L23.3287 30.7091C21.262 28.6628 17.9554 28.7229 15.9626 30.8294C13.955 32.936 14.014 36.3064 16.0807 38.3376L29.2777 51.3529C30.1191 52.1804 31.1672 52.6619 32.2448 52.7973C33.721 53.0531 35.5809 52.7371 37.4409 50.6758L44.5413 43.3933L50.5494 37.2543C50.5494 37.2693 37.4705 44.6572 32.4367 39.6918Z" fill="#4200FF"/>
<defs>
<linearGradient id="paint0_linear" x1="54.3897" y1="25.9856" x2="19.0424" y2="61.6278" gradientUnits="userSpaceOnUse">
<stop stop-color="#0000FF"/>
<stop offset="0.649234" stop-color="#1B044A"/>
</linearGradient>
</defs>
</svg>
